<mxfile host="app.diagrams.net" modified="2023-11-16T19:28:34.382Z" agent="Mozilla/5.0 (X11; Linux x86_64) AppleWebKit/537.36 (KHTML, like Gecko) Chrome/118.0.0.0 Safari/537.36" etag="oUpuFMjQzpPjdhJV2v9o" version="22.1.2" type="device">
  <diagram name="Página-1" id="QiYV1qmOMdHmgPrPuQlQ">
    <mxGraphModel dx="1406" dy="741" grid="1" gridSize="10" guides="1" tooltips="1" connect="1" arrows="1" fold="1" page="1" pageScale="1" pageWidth="827" pageHeight="1169" math="0" shadow="0">
      <root>
        <mxCell id="0" />
        <mxCell id="1" parent="0" />
        <mxCell id="7b-fv8g-YU7DedZ6BQK6-9" value="Cliente" style="swimlane;fontStyle=1;align=center;verticalAlign=top;childLayout=stackLayout;horizontal=1;startSize=26;horizontalStack=0;resizeParent=1;resizeParentMax=0;resizeLast=0;collapsible=1;marginBottom=0;whiteSpace=wrap;html=1;" parent="1" vertex="1">
          <mxGeometry x="450" y="1108" width="290" height="252" as="geometry">
            <mxRectangle x="80" y="50" width="80" height="30" as="alternateBounds" />
          </mxGeometry>
        </mxCell>
        <mxCell id="7b-fv8g-YU7DedZ6BQK6-10" value="- compras: int" style="text;strokeColor=none;fillColor=none;align=left;verticalAlign=top;spacingLeft=4;spacingRight=4;overflow=hidden;rotatable=0;points=[[0,0.5],[1,0.5]];portConstraint=eastwest;whiteSpace=wrap;html=1;" parent="7b-fv8g-YU7DedZ6BQK6-9" vertex="1">
          <mxGeometry y="26" width="290" height="26" as="geometry" />
        </mxCell>
        <mxCell id="7b-fv8g-YU7DedZ6BQK6-13" value="- idCliente: int {readOnly}" style="text;strokeColor=none;fillColor=none;align=left;verticalAlign=top;spacingLeft=4;spacingRight=4;overflow=hidden;rotatable=0;points=[[0,0.5],[1,0.5]];portConstraint=eastwest;whiteSpace=wrap;html=1;" parent="7b-fv8g-YU7DedZ6BQK6-9" vertex="1">
          <mxGeometry y="52" width="290" height="26" as="geometry" />
        </mxCell>
        <mxCell id="7b-fv8g-YU7DedZ6BQK6-11" value="" style="line;strokeWidth=1;fillColor=none;align=left;verticalAlign=middle;spacingTop=-1;spacingLeft=3;spacingRight=3;rotatable=0;labelPosition=right;points=[];portConstraint=eastwest;strokeColor=inherit;" parent="7b-fv8g-YU7DedZ6BQK6-9" vertex="1">
          <mxGeometry y="78" width="290" height="8" as="geometry" />
        </mxCell>
        <mxCell id="7b-fv8g-YU7DedZ6BQK6-124" value="+ item: attribute" style="text;strokeColor=none;fillColor=none;align=left;verticalAlign=top;spacingLeft=4;spacingRight=4;overflow=hidden;rotatable=0;points=[[0,0.5],[1,0.5]];portConstraint=eastwest;whiteSpace=wrap;html=1;" parent="7b-fv8g-YU7DedZ6BQK6-9" vertex="1">
          <mxGeometry y="86" width="290" height="26" as="geometry" />
        </mxCell>
        <mxCell id="7b-fv8g-YU7DedZ6BQK6-12" value="+ calcularDescuento(): int" style="text;strokeColor=none;fillColor=none;align=left;verticalAlign=top;spacingLeft=4;spacingRight=4;overflow=hidden;rotatable=0;points=[[0,0.5],[1,0.5]];portConstraint=eastwest;whiteSpace=wrap;html=1;" parent="7b-fv8g-YU7DedZ6BQK6-9" vertex="1">
          <mxGeometry y="112" width="290" height="26" as="geometry" />
        </mxCell>
        <mxCell id="BISMSBHsAlcNVkQLNiJe-1" value="&amp;lt;&amp;lt;constructor&amp;gt;&amp;gt;Cliente(DNI: String, nombre: String, apellidos: String, telefono: int, correo: String, idCliente: int): void" style="text;strokeColor=none;fillColor=none;align=left;verticalAlign=top;spacingLeft=4;spacingRight=4;overflow=hidden;rotatable=0;points=[[0,0.5],[1,0.5]];portConstraint=eastwest;whiteSpace=wrap;html=1;" parent="7b-fv8g-YU7DedZ6BQK6-9" vertex="1">
          <mxGeometry y="138" width="290" height="62" as="geometry" />
        </mxCell>
        <mxCell id="BISMSBHsAlcNVkQLNiJe-2" value="+ &amp;lt;&amp;lt;setter&amp;gt;setAtributo(atributo: tipoAtributo): void" style="text;strokeColor=none;fillColor=none;align=left;verticalAlign=top;spacingLeft=4;spacingRight=4;overflow=hidden;rotatable=0;points=[[0,0.5],[1,0.5]];portConstraint=eastwest;whiteSpace=wrap;html=1;" parent="7b-fv8g-YU7DedZ6BQK6-9" vertex="1">
          <mxGeometry y="200" width="290" height="26" as="geometry" />
        </mxCell>
        <mxCell id="BISMSBHsAlcNVkQLNiJe-10" value="+ &amp;lt;&amp;lt;getter&amp;gt;&amp;gt;getAtributo(): tipoAtributo" style="text;strokeColor=none;fillColor=none;align=left;verticalAlign=top;spacingLeft=4;spacingRight=4;overflow=hidden;rotatable=0;points=[[0,0.5],[1,0.5]];portConstraint=eastwest;whiteSpace=wrap;html=1;" parent="7b-fv8g-YU7DedZ6BQK6-9" vertex="1">
          <mxGeometry y="226" width="290" height="26" as="geometry" />
        </mxCell>
        <mxCell id="7b-fv8g-YU7DedZ6BQK6-16" value="&lt;i&gt;Trabajador&lt;/i&gt;" style="swimlane;fontStyle=1;align=center;verticalAlign=top;childLayout=stackLayout;horizontal=1;startSize=26;horizontalStack=0;resizeParent=1;resizeParentMax=0;resizeLast=0;collapsible=1;marginBottom=0;whiteSpace=wrap;html=1;" parent="1" vertex="1">
          <mxGeometry x="760" y="1088" width="256" height="278" as="geometry">
            <mxRectangle x="320" y="510" width="80" height="30" as="alternateBounds" />
          </mxGeometry>
        </mxCell>
        <mxCell id="7b-fv8g-YU7DedZ6BQK6-18" value="- idSS: int {readOnly}" style="text;strokeColor=none;fillColor=none;align=left;verticalAlign=top;spacingLeft=4;spacingRight=4;overflow=hidden;rotatable=0;points=[[0,0.5],[1,0.5]];portConstraint=eastwest;whiteSpace=wrap;html=1;" parent="7b-fv8g-YU7DedZ6BQK6-16" vertex="1">
          <mxGeometry y="26" width="256" height="26" as="geometry" />
        </mxCell>
        <mxCell id="7b-fv8g-YU7DedZ6BQK6-45" value="- salario: double" style="text;strokeColor=none;fillColor=none;align=left;verticalAlign=top;spacingLeft=4;spacingRight=4;overflow=hidden;rotatable=0;points=[[0,0.5],[1,0.5]];portConstraint=eastwest;whiteSpace=wrap;html=1;" parent="7b-fv8g-YU7DedZ6BQK6-16" vertex="1">
          <mxGeometry y="52" width="256" height="26" as="geometry" />
        </mxCell>
        <mxCell id="7b-fv8g-YU7DedZ6BQK6-65" value="- turno: tipoTurno" style="text;strokeColor=none;fillColor=none;align=left;verticalAlign=top;spacingLeft=4;spacingRight=4;overflow=hidden;rotatable=0;points=[[0,0.5],[1,0.5]];portConstraint=eastwest;whiteSpace=wrap;html=1;" parent="7b-fv8g-YU7DedZ6BQK6-16" vertex="1">
          <mxGeometry y="78" width="256" height="26" as="geometry" />
        </mxCell>
        <mxCell id="7b-fv8g-YU7DedZ6BQK6-19" value="" style="line;strokeWidth=1;fillColor=none;align=left;verticalAlign=middle;spacingTop=-1;spacingLeft=3;spacingRight=3;rotatable=0;labelPosition=right;points=[];portConstraint=eastwest;strokeColor=inherit;" parent="7b-fv8g-YU7DedZ6BQK6-16" vertex="1">
          <mxGeometry y="104" width="256" height="8" as="geometry" />
        </mxCell>
        <mxCell id="7b-fv8g-YU7DedZ6BQK6-20" value="+ calcularSalario(): double" style="text;strokeColor=none;fillColor=none;align=left;verticalAlign=top;spacingLeft=4;spacingRight=4;overflow=hidden;rotatable=0;points=[[0,0.5],[1,0.5]];portConstraint=eastwest;whiteSpace=wrap;html=1;" parent="7b-fv8g-YU7DedZ6BQK6-16" vertex="1">
          <mxGeometry y="112" width="256" height="38" as="geometry" />
        </mxCell>
        <mxCell id="BISMSBHsAlcNVkQLNiJe-3" value="&amp;lt;&amp;lt;constructor&amp;gt;&amp;gt;Cliente(DNI: String, nombre: String, apellidos: String, telefono: int, correo: String, idSS: int): void" style="text;strokeColor=none;fillColor=none;align=left;verticalAlign=top;spacingLeft=4;spacingRight=4;overflow=hidden;rotatable=0;points=[[0,0.5],[1,0.5]];portConstraint=eastwest;whiteSpace=wrap;html=1;" parent="7b-fv8g-YU7DedZ6BQK6-16" vertex="1">
          <mxGeometry y="150" width="256" height="58" as="geometry" />
        </mxCell>
        <mxCell id="BISMSBHsAlcNVkQLNiJe-4" value="+ &amp;lt;&amp;lt;setter&amp;gt;setAtributo(atributo: tipoAtributo): void" style="text;strokeColor=none;fillColor=none;align=left;verticalAlign=top;spacingLeft=4;spacingRight=4;overflow=hidden;rotatable=0;points=[[0,0.5],[1,0.5]];portConstraint=eastwest;whiteSpace=wrap;html=1;" parent="7b-fv8g-YU7DedZ6BQK6-16" vertex="1">
          <mxGeometry y="208" width="256" height="40" as="geometry" />
        </mxCell>
        <mxCell id="BISMSBHsAlcNVkQLNiJe-5" value="+ &amp;lt;&amp;lt;getter&amp;gt;&amp;gt;getAtributo(): tipoAtributo" style="text;strokeColor=none;fillColor=none;align=left;verticalAlign=top;spacingLeft=4;spacingRight=4;overflow=hidden;rotatable=0;points=[[0,0.5],[1,0.5]];portConstraint=eastwest;whiteSpace=wrap;html=1;" parent="7b-fv8g-YU7DedZ6BQK6-16" vertex="1">
          <mxGeometry y="248" width="256" height="30" as="geometry" />
        </mxCell>
        <mxCell id="7b-fv8g-YU7DedZ6BQK6-28" value="«enumeration»&lt;br style=&quot;border-color: var(--border-color);&quot;&gt;&lt;b&gt;tipoTurno&lt;/b&gt;" style="swimlane;fontStyle=0;childLayout=stackLayout;horizontal=1;startSize=30;fillColor=none;horizontalStack=0;resizeParent=1;resizeParentMax=0;resizeLast=0;collapsible=1;marginBottom=0;whiteSpace=wrap;html=1;" parent="1" vertex="1">
          <mxGeometry x="1076" y="1058" width="140" height="108" as="geometry" />
        </mxCell>
        <mxCell id="7b-fv8g-YU7DedZ6BQK6-30" value="MAÑANA" style="text;strokeColor=none;fillColor=none;align=left;verticalAlign=top;spacingLeft=4;spacingRight=4;overflow=hidden;rotatable=0;points=[[0,0.5],[1,0.5]];portConstraint=eastwest;whiteSpace=wrap;html=1;" parent="7b-fv8g-YU7DedZ6BQK6-28" vertex="1">
          <mxGeometry y="30" width="140" height="26" as="geometry" />
        </mxCell>
        <mxCell id="7b-fv8g-YU7DedZ6BQK6-31" value="TARDE" style="text;strokeColor=none;fillColor=none;align=left;verticalAlign=top;spacingLeft=4;spacingRight=4;overflow=hidden;rotatable=0;points=[[0,0.5],[1,0.5]];portConstraint=eastwest;whiteSpace=wrap;html=1;" parent="7b-fv8g-YU7DedZ6BQK6-28" vertex="1">
          <mxGeometry y="56" width="140" height="26" as="geometry" />
        </mxCell>
        <mxCell id="7b-fv8g-YU7DedZ6BQK6-32" value="ALTERNO" style="text;strokeColor=none;fillColor=none;align=left;verticalAlign=top;spacingLeft=4;spacingRight=4;overflow=hidden;rotatable=0;points=[[0,0.5],[1,0.5]];portConstraint=eastwest;whiteSpace=wrap;html=1;" parent="7b-fv8g-YU7DedZ6BQK6-28" vertex="1">
          <mxGeometry y="82" width="140" height="26" as="geometry" />
        </mxCell>
        <mxCell id="7b-fv8g-YU7DedZ6BQK6-33" value="«enumeration»&lt;br style=&quot;border-color: var(--border-color);&quot;&gt;&lt;b&gt;tipoEspecialidad&lt;/b&gt;" style="swimlane;fontStyle=0;childLayout=stackLayout;horizontal=1;startSize=30;fillColor=none;horizontalStack=0;resizeParent=1;resizeParentMax=0;resizeLast=0;collapsible=1;marginBottom=0;whiteSpace=wrap;html=1;" parent="1" vertex="1">
          <mxGeometry x="1180" y="1544" width="140" height="134" as="geometry" />
        </mxCell>
        <mxCell id="7b-fv8g-YU7DedZ6BQK6-34" value="MESA" style="text;strokeColor=none;fillColor=none;align=left;verticalAlign=top;spacingLeft=4;spacingRight=4;overflow=hidden;rotatable=0;points=[[0,0.5],[1,0.5]];portConstraint=eastwest;whiteSpace=wrap;html=1;" parent="7b-fv8g-YU7DedZ6BQK6-33" vertex="1">
          <mxGeometry y="30" width="140" height="26" as="geometry" />
        </mxCell>
        <mxCell id="7b-fv8g-YU7DedZ6BQK6-35" value="BARRA" style="text;strokeColor=none;fillColor=none;align=left;verticalAlign=top;spacingLeft=4;spacingRight=4;overflow=hidden;rotatable=0;points=[[0,0.5],[1,0.5]];portConstraint=eastwest;whiteSpace=wrap;html=1;" parent="7b-fv8g-YU7DedZ6BQK6-33" vertex="1">
          <mxGeometry y="56" width="140" height="26" as="geometry" />
        </mxCell>
        <mxCell id="7b-fv8g-YU7DedZ6BQK6-36" value="COCINA" style="text;strokeColor=none;fillColor=none;align=left;verticalAlign=top;spacingLeft=4;spacingRight=4;overflow=hidden;rotatable=0;points=[[0,0.5],[1,0.5]];portConstraint=eastwest;whiteSpace=wrap;html=1;" parent="7b-fv8g-YU7DedZ6BQK6-33" vertex="1">
          <mxGeometry y="82" width="140" height="26" as="geometry" />
        </mxCell>
        <mxCell id="7b-fv8g-YU7DedZ6BQK6-37" value="CAJA" style="text;strokeColor=none;fillColor=none;align=left;verticalAlign=top;spacingLeft=4;spacingRight=4;overflow=hidden;rotatable=0;points=[[0,0.5],[1,0.5]];portConstraint=eastwest;whiteSpace=wrap;html=1;" parent="7b-fv8g-YU7DedZ6BQK6-33" vertex="1">
          <mxGeometry y="108" width="140" height="26" as="geometry" />
        </mxCell>
        <mxCell id="7b-fv8g-YU7DedZ6BQK6-46" value="Apoyo" style="swimlane;fontStyle=1;align=center;verticalAlign=top;childLayout=stackLayout;horizontal=1;startSize=26;horizontalStack=0;resizeParent=1;resizeParentMax=0;resizeLast=0;collapsible=1;marginBottom=0;whiteSpace=wrap;html=1;" parent="1" vertex="1">
          <mxGeometry x="480" y="1480" width="260" height="238" as="geometry">
            <mxRectangle x="80" y="50" width="80" height="30" as="alternateBounds" />
          </mxGeometry>
        </mxCell>
        <mxCell id="7b-fv8g-YU7DedZ6BQK6-47" value="- asociacion: String" style="text;strokeColor=none;fillColor=none;align=left;verticalAlign=top;spacingLeft=4;spacingRight=4;overflow=hidden;rotatable=0;points=[[0,0.5],[1,0.5]];portConstraint=eastwest;whiteSpace=wrap;html=1;" parent="7b-fv8g-YU7DedZ6BQK6-46" vertex="1">
          <mxGeometry y="26" width="260" height="26" as="geometry" />
        </mxCell>
        <mxCell id="l8252gFxd-V4299qEZYl-7" value="" style="line;strokeWidth=1;fillColor=none;align=left;verticalAlign=middle;spacingTop=-1;spacingLeft=3;spacingRight=3;rotatable=0;labelPosition=right;points=[];portConstraint=eastwest;strokeColor=inherit;" parent="7b-fv8g-YU7DedZ6BQK6-46" vertex="1">
          <mxGeometry y="52" width="260" height="8" as="geometry" />
        </mxCell>
        <mxCell id="BISMSBHsAlcNVkQLNiJe-6" value="&lt;span style=&quot;color: rgb(0, 0, 0); font-family: Helvetica; font-size: 12px; font-style: normal; font-variant-ligatures: normal; font-variant-caps: normal; font-weight: 400; letter-spacing: normal; orphans: 2; text-align: left; text-indent: 0px; text-transform: none; widows: 2; word-spacing: 0px; -webkit-text-stroke-width: 0px; background-color: rgb(251, 251, 251); text-decoration-thickness: initial; text-decoration-style: initial; text-decoration-color: initial; float: none; display: inline !important;&quot;&gt;&amp;lt;&amp;lt;constructor&amp;gt;&amp;gt;Cliente(DNI: String, nombre: String, apellidos: String, telefono: int, correo: String, idSS: int, asociacion: String): void&lt;/span&gt;" style="text;whiteSpace=wrap;html=1;" parent="7b-fv8g-YU7DedZ6BQK6-46" vertex="1">
          <mxGeometry y="60" width="260" height="58" as="geometry" />
        </mxCell>
        <mxCell id="BISMSBHsAlcNVkQLNiJe-8" value="&amp;lt;&amp;lt;setter&amp;gt;&amp;gt; + setAsociacion(asociacion: String): void" style="text;strokeColor=none;fillColor=none;align=left;verticalAlign=top;spacingLeft=4;spacingRight=4;overflow=hidden;rotatable=0;points=[[0,0.5],[1,0.5]];portConstraint=eastwest;whiteSpace=wrap;html=1;" parent="7b-fv8g-YU7DedZ6BQK6-46" vertex="1">
          <mxGeometry y="118" width="260" height="40" as="geometry" />
        </mxCell>
        <mxCell id="l8252gFxd-V4299qEZYl-11" value="+ &amp;lt;&amp;lt;setter&amp;gt;&amp;gt; + setTurno(turno: tipo): void" style="text;strokeColor=none;fillColor=none;align=left;verticalAlign=top;spacingLeft=4;spacingRight=4;overflow=hidden;rotatable=0;points=[[0,0.5],[1,0.5]];portConstraint=eastwest;whiteSpace=wrap;html=1;" parent="7b-fv8g-YU7DedZ6BQK6-46" vertex="1">
          <mxGeometry y="158" width="260" height="40" as="geometry" />
        </mxCell>
        <mxCell id="BISMSBHsAlcNVkQLNiJe-9" value="&amp;lt;&amp;lt;getter&amp;gt;&amp;gt; + getAsociacion(): String" style="text;strokeColor=none;fillColor=none;align=left;verticalAlign=top;spacingLeft=4;spacingRight=4;overflow=hidden;rotatable=0;points=[[0,0.5],[1,0.5]];portConstraint=eastwest;whiteSpace=wrap;html=1;" parent="7b-fv8g-YU7DedZ6BQK6-46" vertex="1">
          <mxGeometry y="198" width="260" height="40" as="geometry" />
        </mxCell>
        <mxCell id="7b-fv8g-YU7DedZ6BQK6-58" value="" style="endArrow=classic;html=1;rounded=0;entryX=0.013;entryY=0.181;entryDx=0;entryDy=0;entryPerimeter=0;exitX=1;exitY=0.25;exitDx=0;exitDy=0;" parent="1" source="l8252gFxd-V4299qEZYl-3" target="7b-fv8g-YU7DedZ6BQK6-33" edge="1">
          <mxGeometry width="50" height="50" relative="1" as="geometry">
            <mxPoint x="950" y="1590" as="sourcePoint" />
            <mxPoint x="980" y="1218" as="targetPoint" />
          </mxGeometry>
        </mxCell>
        <mxCell id="7b-fv8g-YU7DedZ6BQK6-60" value="" style="endArrow=classic;html=1;rounded=0;entryX=-0.004;entryY=0.918;entryDx=0;entryDy=0;entryPerimeter=0;exitX=1.001;exitY=0.29;exitDx=0;exitDy=0;exitPerimeter=0;" parent="1" target="7b-fv8g-YU7DedZ6BQK6-31" edge="1">
          <mxGeometry width="50" height="50" relative="1" as="geometry">
            <mxPoint x="1016.2560000000001" y="1147.54" as="sourcePoint" />
            <mxPoint x="992" y="1138" as="targetPoint" />
          </mxGeometry>
        </mxCell>
        <mxCell id="7b-fv8g-YU7DedZ6BQK6-66" value="ElQuiosco" style="swimlane;fontStyle=1;align=center;verticalAlign=top;childLayout=stackLayout;horizontal=1;startSize=26;horizontalStack=0;resizeParent=1;resizeParentMax=0;resizeLast=0;collapsible=1;marginBottom=0;whiteSpace=wrap;html=1;" parent="1" vertex="1">
          <mxGeometry x="676" y="440" width="344" height="240" as="geometry">
            <mxRectangle x="80" y="50" width="80" height="30" as="alternateBounds" />
          </mxGeometry>
        </mxCell>
        <mxCell id="7b-fv8g-YU7DedZ6BQK6-72" value="- listaClientes: List&amp;lt;Cliente&amp;gt;&lt;br&gt;- listaTrabajadores: List&amp;lt;Trabajador&amp;gt;" style="text;strokeColor=none;fillColor=none;align=left;verticalAlign=top;spacingLeft=4;spacingRight=4;overflow=hidden;rotatable=0;points=[[0,0.5],[1,0.5]];portConstraint=eastwest;whiteSpace=wrap;html=1;" parent="7b-fv8g-YU7DedZ6BQK6-66" vertex="1">
          <mxGeometry y="26" width="344" height="38" as="geometry" />
        </mxCell>
        <mxCell id="7b-fv8g-YU7DedZ6BQK6-76" value="" style="line;strokeWidth=1;fillColor=none;align=left;verticalAlign=middle;spacingTop=-1;spacingLeft=3;spacingRight=3;rotatable=0;labelPosition=right;points=[];portConstraint=eastwest;strokeColor=inherit;" parent="7b-fv8g-YU7DedZ6BQK6-66" vertex="1">
          <mxGeometry y="64" width="344" height="8" as="geometry" />
        </mxCell>
        <mxCell id="7b-fv8g-YU7DedZ6BQK6-74" value="+ agregarTrabajador(trabajador: Trabajador): void" style="text;strokeColor=none;fillColor=none;align=left;verticalAlign=top;spacingLeft=4;spacingRight=4;overflow=hidden;rotatable=0;points=[[0,0.5],[1,0.5]];portConstraint=eastwest;whiteSpace=wrap;html=1;" parent="7b-fv8g-YU7DedZ6BQK6-66" vertex="1">
          <mxGeometry y="72" width="344" height="26" as="geometry" />
        </mxCell>
        <mxCell id="7b-fv8g-YU7DedZ6BQK6-77" value="+ agregarCliente(cliente: Cliente): void" style="text;strokeColor=none;fillColor=none;align=left;verticalAlign=top;spacingLeft=4;spacingRight=4;overflow=hidden;rotatable=0;points=[[0,0.5],[1,0.5]];portConstraint=eastwest;whiteSpace=wrap;html=1;" parent="7b-fv8g-YU7DedZ6BQK6-66" vertex="1">
          <mxGeometry y="98" width="344" height="38" as="geometry" />
        </mxCell>
        <mxCell id="7b-fv8g-YU7DedZ6BQK6-78" value="+ agregarClientes(clientes: List&amp;lt;Cliente&amp;gt;): void" style="text;strokeColor=none;fillColor=none;align=left;verticalAlign=top;spacingLeft=4;spacingRight=4;overflow=hidden;rotatable=0;points=[[0,0.5],[1,0.5]];portConstraint=eastwest;whiteSpace=wrap;html=1;" parent="7b-fv8g-YU7DedZ6BQK6-66" vertex="1">
          <mxGeometry y="136" width="344" height="26" as="geometry" />
        </mxCell>
        <mxCell id="7b-fv8g-YU7DedZ6BQK6-79" value="+ agregarTrabajadores(trabajadores: List&amp;lt;Trabajador&amp;gt;): void" style="text;strokeColor=none;fillColor=none;align=left;verticalAlign=top;spacingLeft=4;spacingRight=4;overflow=hidden;rotatable=0;points=[[0,0.5],[1,0.5]];portConstraint=eastwest;whiteSpace=wrap;html=1;" parent="7b-fv8g-YU7DedZ6BQK6-66" vertex="1">
          <mxGeometry y="162" width="344" height="26" as="geometry" />
        </mxCell>
        <mxCell id="7b-fv8g-YU7DedZ6BQK6-80" value="+&amp;nbsp; salariosElQuiosco(): double" style="text;strokeColor=none;fillColor=none;align=left;verticalAlign=top;spacingLeft=4;spacingRight=4;overflow=hidden;rotatable=0;points=[[0,0.5],[1,0.5]];portConstraint=eastwest;whiteSpace=wrap;html=1;" parent="7b-fv8g-YU7DedZ6BQK6-66" vertex="1">
          <mxGeometry y="188" width="344" height="26" as="geometry" />
        </mxCell>
        <mxCell id="7b-fv8g-YU7DedZ6BQK6-82" value="+ personasElQuiosco(): List&amp;lt;Personas&amp;gt;" style="text;strokeColor=none;fillColor=none;align=left;verticalAlign=top;spacingLeft=4;spacingRight=4;overflow=hidden;rotatable=0;points=[[0,0.5],[1,0.5]];portConstraint=eastwest;whiteSpace=wrap;html=1;" parent="7b-fv8g-YU7DedZ6BQK6-66" vertex="1">
          <mxGeometry y="214" width="344" height="26" as="geometry" />
        </mxCell>
        <mxCell id="7b-fv8g-YU7DedZ6BQK6-101" value="" style="endArrow=classic;html=1;rounded=0;entryX=0.048;entryY=0.997;entryDx=0;entryDy=0;entryPerimeter=0;" parent="1" target="BISMSBHsAlcNVkQLNiJe-17" edge="1">
          <mxGeometry width="50" height="50" relative="1" as="geometry">
            <mxPoint x="600" y="1108" as="sourcePoint" />
            <mxPoint x="636" y="940" as="targetPoint" />
          </mxGeometry>
        </mxCell>
        <mxCell id="7b-fv8g-YU7DedZ6BQK6-102" value="" style="endArrow=classic;html=1;rounded=0;exitX=0.105;exitY=0;exitDx=0;exitDy=0;exitPerimeter=0;entryX=0.884;entryY=0.981;entryDx=0;entryDy=0;entryPerimeter=0;" parent="1" source="7b-fv8g-YU7DedZ6BQK6-16" target="BISMSBHsAlcNVkQLNiJe-17" edge="1">
          <mxGeometry width="50" height="50" relative="1" as="geometry">
            <mxPoint x="710" y="1078" as="sourcePoint" />
            <mxPoint x="780" y="930" as="targetPoint" />
          </mxGeometry>
        </mxCell>
        <mxCell id="7b-fv8g-YU7DedZ6BQK6-106" value="&lt;span style=&quot;font-size: 10px;&quot;&gt;1&lt;/span&gt;" style="text;html=1;strokeColor=none;fillColor=none;align=center;verticalAlign=middle;whiteSpace=wrap;rounded=0;" parent="1" vertex="1">
          <mxGeometry x="650" y="610" width="20" height="10" as="geometry" />
        </mxCell>
        <mxCell id="7b-fv8g-YU7DedZ6BQK6-107" value="&lt;span style=&quot;font-size: 10px;&quot;&gt;*&lt;/span&gt;" style="text;html=1;strokeColor=none;fillColor=none;align=center;verticalAlign=middle;whiteSpace=wrap;rounded=0;" parent="1" vertex="1">
          <mxGeometry x="500" y="1088" width="50" height="10" as="geometry" />
        </mxCell>
        <mxCell id="7b-fv8g-YU7DedZ6BQK6-111" value="&lt;span style=&quot;font-size: 10px;&quot;&gt;1&lt;/span&gt;" style="text;html=1;strokeColor=none;fillColor=none;align=center;verticalAlign=middle;whiteSpace=wrap;rounded=0;" parent="1" vertex="1">
          <mxGeometry x="950" y="700" width="30" height="10" as="geometry" />
        </mxCell>
        <mxCell id="7b-fv8g-YU7DedZ6BQK6-113" value="&lt;span style=&quot;font-size: 10px;&quot;&gt;*&amp;nbsp;&lt;/span&gt;" style="text;html=1;strokeColor=none;fillColor=none;align=center;verticalAlign=middle;whiteSpace=wrap;rounded=0;" parent="1" vertex="1">
          <mxGeometry x="970" y="1070" width="20" height="10" as="geometry" />
        </mxCell>
        <mxCell id="7b-fv8g-YU7DedZ6BQK6-114" value="&lt;i&gt;Persona&lt;/i&gt;" style="swimlane;fontStyle=1;align=center;verticalAlign=top;childLayout=stackLayout;horizontal=1;startSize=26;horizontalStack=0;resizeParent=1;resizeParentMax=0;resizeLast=0;collapsible=1;marginBottom=0;whiteSpace=wrap;html=1;" parent="1" vertex="1">
          <mxGeometry x="610" y="770" width="200" height="228" as="geometry">
            <mxRectangle x="320" y="510" width="80" height="30" as="alternateBounds" />
          </mxGeometry>
        </mxCell>
        <mxCell id="7b-fv8g-YU7DedZ6BQK6-115" value="- DNI: String {readOnly}" style="text;strokeColor=none;fillColor=none;align=left;verticalAlign=top;spacingLeft=4;spacingRight=4;overflow=hidden;rotatable=0;points=[[0,0.5],[1,0.5]];portConstraint=eastwest;whiteSpace=wrap;html=1;" parent="7b-fv8g-YU7DedZ6BQK6-114" vertex="1">
          <mxGeometry y="26" width="200" height="26" as="geometry" />
        </mxCell>
        <mxCell id="7b-fv8g-YU7DedZ6BQK6-116" value="- nombre: String" style="text;strokeColor=none;fillColor=none;align=left;verticalAlign=top;spacingLeft=4;spacingRight=4;overflow=hidden;rotatable=0;points=[[0,0.5],[1,0.5]];portConstraint=eastwest;whiteSpace=wrap;html=1;" parent="7b-fv8g-YU7DedZ6BQK6-114" vertex="1">
          <mxGeometry y="52" width="200" height="26" as="geometry" />
        </mxCell>
        <mxCell id="7b-fv8g-YU7DedZ6BQK6-117" value="- apellidos: String" style="text;strokeColor=none;fillColor=none;align=left;verticalAlign=top;spacingLeft=4;spacingRight=4;overflow=hidden;rotatable=0;points=[[0,0.5],[1,0.5]];portConstraint=eastwest;whiteSpace=wrap;html=1;" parent="7b-fv8g-YU7DedZ6BQK6-114" vertex="1">
          <mxGeometry y="78" width="200" height="26" as="geometry" />
        </mxCell>
        <mxCell id="7b-fv8g-YU7DedZ6BQK6-118" value="- telefono: int" style="text;strokeColor=none;fillColor=none;align=left;verticalAlign=top;spacingLeft=4;spacingRight=4;overflow=hidden;rotatable=0;points=[[0,0.5],[1,0.5]];portConstraint=eastwest;whiteSpace=wrap;html=1;" parent="7b-fv8g-YU7DedZ6BQK6-114" vertex="1">
          <mxGeometry y="104" width="200" height="26" as="geometry" />
        </mxCell>
        <mxCell id="7b-fv8g-YU7DedZ6BQK6-122" value="- correo: String" style="text;strokeColor=none;fillColor=none;align=left;verticalAlign=top;spacingLeft=4;spacingRight=4;overflow=hidden;rotatable=0;points=[[0,0.5],[1,0.5]];portConstraint=eastwest;whiteSpace=wrap;html=1;" parent="7b-fv8g-YU7DedZ6BQK6-114" vertex="1">
          <mxGeometry y="130" width="200" height="26" as="geometry" />
        </mxCell>
        <mxCell id="BISMSBHsAlcNVkQLNiJe-18" value="+ &amp;lt;&amp;lt;getter&amp;gt;&amp;gt;getAtributo(): tipoAtributo" style="text;strokeColor=none;fillColor=none;align=left;verticalAlign=top;spacingLeft=4;spacingRight=4;overflow=hidden;rotatable=0;points=[[0,0.5],[1,0.5]];portConstraint=eastwest;whiteSpace=wrap;html=1;" parent="7b-fv8g-YU7DedZ6BQK6-114" vertex="1">
          <mxGeometry y="156" width="200" height="34" as="geometry" />
        </mxCell>
        <mxCell id="BISMSBHsAlcNVkQLNiJe-17" value="+ &amp;lt;&amp;lt;setter&amp;gt;setAtributo(atributo: tipoAtributo): void" style="text;strokeColor=none;fillColor=none;align=left;verticalAlign=top;spacingLeft=4;spacingRight=4;overflow=hidden;rotatable=0;points=[[0,0.5],[1,0.5]];portConstraint=eastwest;whiteSpace=wrap;html=1;" parent="7b-fv8g-YU7DedZ6BQK6-114" vertex="1">
          <mxGeometry y="190" width="200" height="38" as="geometry" />
        </mxCell>
        <mxCell id="BISMSBHsAlcNVkQLNiJe-12" value="" style="endArrow=diamondThin;endFill=0;endSize=24;html=1;rounded=0;exitX=0.198;exitY=0;exitDx=0;exitDy=0;exitPerimeter=0;entryX=0;entryY=0.929;entryDx=0;entryDy=0;entryPerimeter=0;" parent="1" source="7b-fv8g-YU7DedZ6BQK6-9" target="7b-fv8g-YU7DedZ6BQK6-78" edge="1">
          <mxGeometry width="160" relative="1" as="geometry">
            <mxPoint x="500" y="600" as="sourcePoint" />
            <mxPoint x="650" y="600" as="targetPoint" />
            <Array as="points">
              <mxPoint x="510" y="600" />
            </Array>
          </mxGeometry>
        </mxCell>
        <mxCell id="BISMSBHsAlcNVkQLNiJe-13" value="" style="endArrow=diamondThin;endFill=0;endSize=24;html=1;rounded=0;exitX=0.198;exitY=0;exitDx=0;exitDy=0;exitPerimeter=0;entryX=0.854;entryY=1.077;entryDx=0;entryDy=0;entryPerimeter=0;" parent="1" target="7b-fv8g-YU7DedZ6BQK6-82" edge="1">
          <mxGeometry width="160" relative="1" as="geometry">
            <mxPoint x="990" y="1088" as="sourcePoint" />
            <mxPoint x="910" y="740" as="targetPoint" />
            <Array as="points">
              <mxPoint x="993" y="740" />
              <mxPoint x="970" y="740" />
            </Array>
          </mxGeometry>
        </mxCell>
        <mxCell id="l8252gFxd-V4299qEZYl-1" value="Dependiente" style="swimlane;fontStyle=1;align=center;verticalAlign=top;childLayout=stackLayout;horizontal=1;startSize=26;horizontalStack=0;resizeParent=1;resizeParentMax=0;resizeLast=0;collapsible=1;marginBottom=0;whiteSpace=wrap;html=1;" parent="1" vertex="1">
          <mxGeometry x="835" y="1490" width="260" height="196" as="geometry">
            <mxRectangle x="80" y="50" width="80" height="30" as="alternateBounds" />
          </mxGeometry>
        </mxCell>
        <mxCell id="7b-fv8g-YU7DedZ6BQK6-21" value="&lt;font style=&quot;font-size: 12px;&quot;&gt;- especialidad: tipoEspecialidad&lt;/font&gt;" style="text;strokeColor=none;fillColor=none;align=left;verticalAlign=top;spacingLeft=4;spacingRight=4;overflow=hidden;rotatable=0;points=[[0,0.5],[1,0.5]];portConstraint=eastwest;whiteSpace=wrap;html=1;" parent="l8252gFxd-V4299qEZYl-1" vertex="1">
          <mxGeometry y="26" width="260" height="26" as="geometry" />
        </mxCell>
        <mxCell id="l8252gFxd-V4299qEZYl-12" value="" style="line;strokeWidth=1;fillColor=none;align=left;verticalAlign=middle;spacingTop=-1;spacingLeft=3;spacingRight=3;rotatable=0;labelPosition=right;points=[];portConstraint=eastwest;strokeColor=inherit;" parent="l8252gFxd-V4299qEZYl-1" vertex="1">
          <mxGeometry y="52" width="260" height="8" as="geometry" />
        </mxCell>
        <mxCell id="l8252gFxd-V4299qEZYl-13" value="+ calcularSalario(): double" style="text;strokeColor=none;fillColor=none;align=left;verticalAlign=top;spacingLeft=4;spacingRight=4;overflow=hidden;rotatable=0;points=[[0,0.5],[1,0.5]];portConstraint=eastwest;whiteSpace=wrap;html=1;" parent="l8252gFxd-V4299qEZYl-1" vertex="1">
          <mxGeometry y="60" width="260" height="38" as="geometry" />
        </mxCell>
        <mxCell id="l8252gFxd-V4299qEZYl-3" value="&lt;span style=&quot;color: rgb(0, 0, 0); font-family: Helvetica; font-size: 12px; font-style: normal; font-variant-ligatures: normal; font-variant-caps: normal; font-weight: 400; letter-spacing: normal; orphans: 2; text-align: left; text-indent: 0px; text-transform: none; widows: 2; word-spacing: 0px; -webkit-text-stroke-width: 0px; background-color: rgb(251, 251, 251); text-decoration-thickness: initial; text-decoration-style: initial; text-decoration-color: initial; float: none; display: inline !important;&quot;&gt;&amp;lt;&amp;lt;constructor&amp;gt;&amp;gt; + Cliente(DNI: String, nombre: String, apellidos: String, telefono: int, correo: String, idSS: int, asociacion: String): void&lt;/span&gt;" style="text;whiteSpace=wrap;html=1;" parent="l8252gFxd-V4299qEZYl-1" vertex="1">
          <mxGeometry y="98" width="260" height="58" as="geometry" />
        </mxCell>
        <mxCell id="l8252gFxd-V4299qEZYl-4" value="+ &amp;lt;&amp;lt;setter&amp;gt;&amp;gt; + setTurno(turno: tipo): void" style="text;strokeColor=none;fillColor=none;align=left;verticalAlign=top;spacingLeft=4;spacingRight=4;overflow=hidden;rotatable=0;points=[[0,0.5],[1,0.5]];portConstraint=eastwest;whiteSpace=wrap;html=1;" parent="l8252gFxd-V4299qEZYl-1" vertex="1">
          <mxGeometry y="156" width="260" height="40" as="geometry" />
        </mxCell>
        <mxCell id="l8252gFxd-V4299qEZYl-6" value="" style="endArrow=classic;html=1;rounded=0;entryX=0.073;entryY=0.96;entryDx=0;entryDy=0;entryPerimeter=0;exitX=0.844;exitY=-0.005;exitDx=0;exitDy=0;exitPerimeter=0;" parent="1" source="7b-fv8g-YU7DedZ6BQK6-46" target="BISMSBHsAlcNVkQLNiJe-5" edge="1">
          <mxGeometry width="50" height="50" relative="1" as="geometry">
            <mxPoint x="777" y="1490" as="sourcePoint" />
            <mxPoint x="827" y="1440" as="targetPoint" />
          </mxGeometry>
        </mxCell>
        <mxCell id="l8252gFxd-V4299qEZYl-10" value="" style="endArrow=classic;html=1;rounded=0;entryX=0.675;entryY=0.968;entryDx=0;entryDy=0;entryPerimeter=0;" parent="1" target="BISMSBHsAlcNVkQLNiJe-5" edge="1">
          <mxGeometry width="50" height="50" relative="1" as="geometry">
            <mxPoint x="960" y="1490" as="sourcePoint" />
            <mxPoint x="930" y="1390" as="targetPoint" />
          </mxGeometry>
        </mxCell>
      </root>
    </mxGraphModel>
  </diagram>
</mxfile>
